<svg xmlns="http://www.w3.org/2000/svg" viewBox="0 0 900 520"><defs><linearGradient id="s" x1="0" y1="0" x2="0" y2="1"><stop offset="0" stop-color="#69c5f0"/><stop offset="1" stop-color="#d8f4ff"/></linearGradient><linearGradient id="w" x1="0" y1="0" x2="1" y2="1"><stop offset="0" stop-color="#20b6c8"/><stop offset="1" stop-color="#047a9d"/></linearGradient></defs><rect width="900" height="520" fill="url(#s)"/><circle cx="720" cy="95" r="58" fill="#ffdf83"/><path d="M0 385C150 330 300 408 470 355C620 308 720 340 900 310V520H0Z" fill="url(#w)"/><path d="M80 394C210 370 310 410 450 382C610 350 715 375 820 348" fill="none" stroke="#e5ffff" stroke-width="10" opacity=".45"/><g fill="#8b5e34" stroke="#603919" stroke-width="8"><line x1="190" y1="320" x2="190" y2="395"/><line x1="330" y1="320" x2="330" y2="395"/><line x1="520" y1="310" x2="520" y2="392"/><line x1="670" y1="310" x2="670" y2="392"/></g><polygon points="125,290 260,210 395,290" fill="#b58b55"/><rect x="150" y="290" width="220" height="70" fill="#d9a76a"/><polygon points="450,282 600,196 750,282" fill="#b58b55"/><rect x="480" y="282" width="240" height="78" fill="#d9a76a"/><text x="450" y="472" fill="white" font-family="Arial" font-size="38" font-weight="700" text-anchor="middle">Bora Bora</text></svg>