<svg xmlns="http://www.w3.org/2000/svg" viewBox="0 0 900 520"><defs><linearGradient id="s" x1="0" y1="0" x2="0" y2="1"><stop offset="0" stop-color="#78c7ed"/><stop offset="1" stop-color="#f7e7b2"/></linearGradient><linearGradient id="w" x1="0" y1="0" x2="1" y2="1"><stop offset="0" stop-color="#0e78a3"/><stop offset="1" stop-color="#084c75"/></linearGradient></defs><rect width="900" height="520" fill="url(#s)"/><circle cx="735" cy="100" r="52" fill="#ffd270"/><path d="M0 370C170 330 280 355 430 330C610 300 730 330 900 300V520H0Z" fill="url(#w)"/><path d="M0 430C160 360 255 430 395 365C560 290 690 385 900 330V520H0Z" fill="#f4d7a0"/><path d="M0 395C190 340 330 410 500 350C610 310 725 325 900 295" fill="none" stroke="#fff" stroke-width="14" opacity=".75"/><path d="M95 210C210 150 360 160 500 214C620 260 735 230 838 180L900 280H0V285Z" fill="#2f7f69"/><path d="M140 220L245 125L350 220Z" fill="#376e55"/><path d="M420 214L530 110L650 215Z" fill="#2a6653"/><text x="450" y="472" fill="white" font-family="Arial" font-size="38" font-weight="700" text-anchor="middle">Copacabana Beach</text></svg>