<svg xmlns="http://www.w3.org/2000/svg" viewBox="0 0 1600 900" role="img" aria-label="Travel city and ocean background">
  <defs>
    <linearGradient id="sky" x1="0" x2="0" y1="0" y2="1">
      <stop offset="0%" stop-color="#67b7dc"/>
      <stop offset="58%" stop-color="#bee9ff"/>
      <stop offset="100%" stop-color="#f6d8a8"/>
    </linearGradient>
    <linearGradient id="water" x1="0" x2="1" y1="0" y2="1">
      <stop offset="0%" stop-color="#0c7895"/>
      <stop offset="100%" stop-color="#02445e"/>
    </linearGradient>
  </defs>
  <rect width="1600" height="900" fill="url(#sky)"/>
  <circle cx="1260" cy="160" r="80" fill="#fff0b8" opacity="0.9"/>
  <path d="M0 525 C210 490 340 540 540 505 C770 465 910 535 1160 492 C1360 458 1460 485 1600 462 L1600 900 L0 900 Z" fill="url(#water)"/>
  <path d="M0 620 C220 580 350 660 560 615 C820 560 1000 652 1270 592 C1400 565 1505 585 1600 572" fill="none" stroke="#8de9ff" stroke-width="10" opacity="0.35"/>
  <g opacity="0.97">
    <rect x="650" y="320" width="56" height="250" fill="#1f4f68"/>
    <rect x="730" y="245" width="70" height="325" fill="#245f7b"/>
    <rect x="820" y="285" width="58" height="285" fill="#1a435b"/>
    <rect x="905" y="205" width="76" height="365" fill="#2a718e"/>
    <rect x="1010" y="260" width="64" height="310" fill="#1d536f"/>
    <rect x="1100" y="340" width="55" height="230" fill="#2b6681"/>
    <rect x="1180" y="300" width="70" height="270" fill="#17425a"/>
  </g>
  <g fill="#f7d08a" opacity="0.45">
    <rect x="670" y="350" width="11" height="16"/><rect x="690" y="350" width="11" height="16"/>
    <rect x="752" y="285" width="12" height="18"/><rect x="775" y="285" width="12" height="18"/>
    <rect x="930" y="250" width="12" height="18"/><rect x="955" y="250" width="12" height="18"/>
    <rect x="1030" y="300" width="12" height="18"/><rect x="1052" y="300" width="12" height="18"/>
  </g>
  <path d="M200 610 C420 500 610 505 825 620" fill="none" stroke="#f1d7a8" stroke-width="30" opacity="0.85"/>
  <path d="M180 632 C408 518 617 525 845 642" fill="none" stroke="#fff5d6" stroke-width="8" opacity="0.55"/>
</svg>