<svg xmlns="http://www.w3.org/2000/svg" viewBox="0 0 900 520"><rect width="900" height="520" fill="#8ad2ef"/><rect y="390" width="900" height="130" fill="#075380"/><circle cx="720" cy="110" r="54" fill="#ffd46f"/><path d="M0 330C95 225 185 245 260 335C150 320 75 345 0 330Z" fill="#356d53"/><path d="M620 345C705 215 795 225 900 345C800 315 715 320 620 345Z" fill="#2d604b"/><rect x="418" y="190" width="24" height="155" fill="#f3efe4"/><path d="M430 172L390 240M430 172L470 240M430 172L430 250" stroke="#f3efe4" stroke-width="10" stroke-linecap="round"/><rect x="260" y="320" width="85" height="80" fill="#23526d"/><rect x="365" y="295" width="70" height="105" fill="#2f6988"/><rect x="465" y="330" width="90" height="70" fill="#264b66"/><text x="450" y="472" fill="white" font-family="Arial" font-size="38" font-weight="700" text-anchor="middle">Rio de Janeiro, Brazil</text></svg>